<!-- Tabler Icons v3 (https://tabler.io/icons) — MIT License. SVG sprite generated from @tabler/icons outline set. -->
<svg xmlns="http://www.w3.org/2000/svg" style="display: none">
  <symbol
    id="ti-arrow-left"
    viewBox="0 0 24 24"
    fill="none"
    stroke="currentColor"
    stroke-width="2"
    stroke-linecap="round"
    stroke-linejoin="round"
  >
    <path stroke="none" d="M0 0h24v24H0z" fill="none" />
    <path d="M5 12l14 0" />
    <path d="M5 12l6 6" />
    <path d="M5 12l6 -6" />
  </symbol>
  <symbol
    id="ti-arrow-right"
    viewBox="0 0 24 24"
    fill="none"
    stroke="currentColor"
    stroke-width="2"
    stroke-linecap="round"
    stroke-linejoin="round"
  >
    <path stroke="none" d="M0 0h24v24H0z" fill="none" />
    <path d="M5 12l14 0" />
    <path d="M13 18l6 -6" />
    <path d="M13 6l6 6" />
  </symbol>
  <symbol
    id="ti-pencil"
    viewBox="0 0 24 24"
    fill="none"
    stroke="currentColor"
    stroke-width="2"
    stroke-linecap="round"
    stroke-linejoin="round"
  >
    <path stroke="none" d="M0 0h24v24H0z" fill="none" />
    <path d="M4 20h4l10.5 -10.5a2.828 2.828 0 1 0 -4 -4l-10.5 10.5v4" />
    <path d="M13.5 6.5l4 4" />
  </symbol>
  <symbol
    id="ti-trash"
    viewBox="0 0 24 24"
    fill="none"
    stroke="currentColor"
    stroke-width="2"
    stroke-linecap="round"
    stroke-linejoin="round"
  >
    <path stroke="none" d="M0 0h24v24H0z" fill="none" />
    <path d="M4 7l16 0" />
    <path d="M10 11l0 6" />
    <path d="M14 11l0 6" />
    <path d="M5 7l1 12a2 2 0 0 0 2 2h8a2 2 0 0 0 2 -2l1 -12" />
    <path d="M9 7v-3a1 1 0 0 1 1 -1h4a1 1 0 0 1 1 1v3" />
  </symbol>
  <symbol
    id="ti-plus"
    viewBox="0 0 24 24"
    fill="none"
    stroke="currentColor"
    stroke-width="2"
    stroke-linecap="round"
    stroke-linejoin="round"
  >
    <path stroke="none" d="M0 0h24v24H0z" fill="none" />
    <path d="M12 5l0 14" />
    <path d="M5 12l14 0" />
  </symbol>
  <symbol
    id="ti-x"
    viewBox="0 0 24 24"
    fill="none"
    stroke="currentColor"
    stroke-width="2"
    stroke-linecap="round"
    stroke-linejoin="round"
  >
    <path stroke="none" d="M0 0h24v24H0z" fill="none" />
    <path d="M18 6l-12 12" />
    <path d="M6 6l12 12" />
  </symbol>
</svg>
